<?xml version="1.0" standalone="no"?>
<!DOCTYPE svg PUBLIC "-//W3C//DTD SVG 20010904//EN"
 "http://www.w3.org/TR/2001/REC-SVG-20010904/DTD/svg10.dtd">
<svg version="1.0" xmlns="http://www.w3.org/2000/svg"
 width="96.000000pt" height="96.000000pt" viewBox="0 0 96.000000 96.000000"
 preserveAspectRatio="xMidYMid meet">
<metadata>
Created by potrace 1.14, written by Peter Selinger 2001-2017
</metadata>
<g transform="translate(0.000000,96.000000) scale(0.100000,-0.100000)"
fill="#000000" stroke="none">
<path d="M446 909 c-74 -12 -166 -62 -220 -119 -125 -134 -156 -337 -76 -507
107 -230 383 -307 589 -164 30 20 64 49 74 64 24 31 16 46 -39 72 l-34 16 -44
-35 c-87 -72 -204 -90 -275 -43 -158 105 -182 385 -46 535 77 86 213 86 319
-2 25 -20 49 -36 55 -36 22 0 81 43 81 60 0 10 -16 32 -36 49 -105 93 -221
129 -348 110z"/>
<path d="M366 643 c-11 -11 -6 -20 18 -31 23 -10 36 -7 36 8 0 10 -47 30 -54
23z"/>
<path d="M340 556 c0 -15 27 -25 47 -19 7 2 9 11 6 19 -7 18 -53 19 -53 0z"/>
<path d="M348 492 c-10 -2 -18 -7 -18 -12 0 -12 37 -23 50 -15 24 15 1 35 -32
27z"/>
<path d="M340 405 c0 -16 17 -19 44 -9 22 9 10 24 -20 24 -15 0 -24 -6 -24
-15z"/>
<path d="M367 335 c-4 -8 -3 -16 1 -19 11 -6 52 12 52 24 0 16 -47 12 -53 -5z"/>
</g>
</svg>
